<svg xmlns="http://www.w3.org/2000/svg" width="600" height="400" viewBox="0 0 600 400">
  <defs>
    <linearGradient id="bg" x1="0%" y1="0%" x2="100%" y2="100%">
      <stop offset="0%" stop-color="#2e1065"/>
      <stop offset="100%" stop-color="#1e1b4b"/>
    </linearGradient>
  </defs>
  <rect width="600" height="400" fill="url(#bg)"/>
  <line x1="300" y1="50" x2="300" y2="350" stroke="#ffffff" stroke-width="1" opacity="0.08" stroke-dasharray="6 4"/>
  <rect x="70" y="90" width="190" height="220" rx="10" fill="#ffffff" opacity="0.06"/>
  <rect x="92" y="112" width="70" height="10" rx="5" fill="#a78bfa" opacity="0.6"/>
  <rect x="92" y="138" width="146" height="5" rx="2.5" fill="#ffffff" opacity="0.15"/>
  <rect x="92" y="152" width="110" height="5" rx="2.5" fill="#ffffff" opacity="0.1"/>
  <rect x="92" y="178" width="146" height="55" rx="6" fill="#a78bfa" opacity="0.1"/>
  <rect x="92" y="256" width="66" height="26" rx="13" fill="#a78bfa" opacity="0.4"/>
  <rect x="340" y="90" width="190" height="220" rx="10" fill="#ffffff" opacity="0.06"/>
  <rect x="362" y="112" width="70" height="10" rx="5" fill="#34d399" opacity="0.6"/>
  <rect x="362" y="138" width="146" height="5" rx="2.5" fill="#ffffff" opacity="0.15"/>
  <rect x="362" y="152" width="130" height="5" rx="2.5" fill="#ffffff" opacity="0.1"/>
  <rect x="362" y="178" width="146" height="55" rx="6" fill="#34d399" opacity="0.1"/>
  <rect x="362" y="256" width="66" height="26" rx="13" fill="#34d399" opacity="0.4"/>
  <text x="165" y="72" text-anchor="middle" font-size="20" fill="#a78bfa" opacity="0.6" font-family="system-ui" font-weight="bold">A</text>
  <text x="435" y="72" text-anchor="middle" font-size="20" fill="#34d399" opacity="0.6" font-family="system-ui" font-weight="bold">B</text>
  <rect x="155" y="340" width="20" height="10" rx="3" fill="#a78bfa" opacity="0.4"/>
  <rect x="425" y="332" width="20" height="18" rx="3" fill="#34d399" opacity="0.4"/>
</svg>