<svg xmlns="http://www.w3.org/2000/svg" width="600" height="400" viewBox="0 0 600 400">
  <defs>
    <linearGradient id="bg" x1="0%" y1="0%" x2="100%" y2="100%">
      <stop offset="0%" stop-color="#2e1065"/>
      <stop offset="100%" stop-color="#4c1d95"/>
    </linearGradient>
    <linearGradient id="btn" x1="0%" y1="0%" x2="100%" y2="0%">
      <stop offset="0%" stop-color="#a78bfa"/>
      <stop offset="100%" stop-color="#818cf8"/>
    </linearGradient>
  </defs>
  <rect width="600" height="400" fill="url(#bg)"/>
  <rect x="90" y="40" width="420" height="320" rx="10" fill="#ffffff" opacity="0.06"/>
  <rect x="90" y="40" width="420" height="34" rx="10" fill="#ffffff" opacity="0.07"/>
  <rect x="110" y="52" width="44" height="10" rx="5" fill="url(#btn)" opacity="0.6"/>
  <rect x="406" y="52" width="28" height="10" rx="5" fill="#ffffff" opacity="0.12"/>
  <rect x="440" y="52" width="28" height="10" rx="5" fill="#ffffff" opacity="0.12"/>
  <rect x="474" y="52" width="28" height="10" rx="5" fill="#ffffff" opacity="0.12"/>
  <rect x="210" y="110" width="180" height="14" rx="7" fill="#ffffff" opacity="0.2"/>
  <rect x="230" y="136" width="140" height="6" rx="3" fill="#ffffff" opacity="0.1"/>
  <rect x="250" y="152" width="100" height="6" rx="3" fill="#ffffff" opacity="0.07"/>
  <rect x="240" y="180" width="120" height="30" rx="15" fill="url(#btn)" opacity="0.5"/>
  <rect x="130" y="240" width="110" height="70" rx="8" fill="#ffffff" opacity="0.05"/>
  <rect x="260" y="240" width="110" height="70" rx="8" fill="#ffffff" opacity="0.05"/>
  <rect x="390" y="240" width="110" height="70" rx="8" fill="#ffffff" opacity="0.05"/>
  <circle cx="185" cy="262" r="10" fill="url(#btn)" opacity="0.4"/>
  <circle cx="315" cy="262" r="10" fill="#22d3ee" opacity="0.4"/>
  <circle cx="445" cy="262" r="10" fill="#fbbf24" opacity="0.4"/>
</svg>