<svg xmlns="http://www.w3.org/2000/svg" width="600" height="400" viewBox="0 0 600 400">
  <defs>
    <linearGradient id="bg" x1="0%" y1="0%" x2="100%" y2="100%">
      <stop offset="0%" stop-color="#1e3a5f"/>
      <stop offset="100%" stop-color="#1a2744"/>
    </linearGradient>
  </defs>
  <rect width="600" height="400" fill="url(#bg)"/>
  <rect x="120" y="90" width="220" height="40" rx="20" fill="#60a5fa" opacity="0.2"/>
  <rect x="144" y="104" width="140" height="5" rx="2.5" fill="#93c5fd" opacity="0.5"/>
  <rect x="120" y="145" width="170" height="40" rx="20" fill="#60a5fa" opacity="0.15"/>
  <rect x="144" y="159" width="90" height="5" rx="2.5" fill="#93c5fd" opacity="0.4"/>
  <rect x="280" y="210" width="200" height="40" rx="20" fill="#a78bfa" opacity="0.2"/>
  <rect x="304" y="224" width="120" height="5" rx="2.5" fill="#c4b5fd" opacity="0.5"/>
  <rect x="320" y="265" width="160" height="40" rx="20" fill="#a78bfa" opacity="0.15"/>
  <rect x="344" y="279" width="70" height="5" rx="2.5" fill="#c4b5fd" opacity="0.4"/>
  <circle cx="96" cy="110" r="18" fill="#60a5fa" opacity="0.25"/>
  <circle cx="96" cy="110" r="7" fill="#93c5fd" opacity="0.5"/>
  <circle cx="504" cy="230" r="18" fill="#a78bfa" opacity="0.25"/>
  <circle cx="504" cy="230" r="7" fill="#c4b5fd" opacity="0.5"/>
  <rect x="420" y="80" width="90" height="56" rx="8" fill="#34d399" opacity="0.12"/>
  <rect x="436" y="94" width="58" height="5" rx="2.5" fill="#6ee7b7" opacity="0.4"/>
  <rect x="436" y="106" width="40" height="5" rx="2.5" fill="#6ee7b7" opacity="0.3"/>
  <rect x="436" y="118" width="48" height="5" rx="2.5" fill="#6ee7b7" opacity="0.25"/>
</svg>