<svg xmlns="http://www.w3.org/2000/svg" width="600" height="400" viewBox="0 0 600 400">
  <defs>
    <linearGradient id="bg" x1="0%" y1="0%" x2="100%" y2="100%">
      <stop offset="0%" stop-color="#1e3a5f"/>
      <stop offset="100%" stop-color="#2a1f4e"/>
    </linearGradient>
    <linearGradient id="line" x1="0%" y1="0%" x2="100%" y2="0%">
      <stop offset="0%" stop-color="#00d2ff"/>
      <stop offset="100%" stop-color="#a78bfa"/>
    </linearGradient>
  </defs>
  <rect width="600" height="400" fill="url(#bg)"/>
  <rect x="60" y="310" width="40" height="50" rx="4" fill="#00d2ff" opacity="0.2"/>
  <rect x="120" y="290" width="40" height="70" rx="4" fill="#a78bfa" opacity="0.2"/>
  <rect x="180" y="320" width="40" height="40" rx="4" fill="#00d2ff" opacity="0.15"/>
  <rect x="240" y="270" width="40" height="90" rx="4" fill="#a78bfa" opacity="0.2"/>
  <rect x="300" y="300" width="40" height="60" rx="4" fill="#00d2ff" opacity="0.15"/>
  <polyline points="60,260 120,220 180,240 240,160 300,180 360,120 420,140 480,80 540,100" fill="none" stroke="url(#line)" stroke-width="3" stroke-linecap="round" opacity="0.8"/>
  <polyline points="60,260 120,220 180,240 240,160 300,180 360,120 420,140 480,80 540,100 540,400 60,400" fill="url(#line)" opacity="0.06"/>
  <circle cx="480" cy="80" r="8" fill="#00d2ff" opacity="0.9"/>
  <circle cx="480" cy="80" r="16" fill="#00d2ff" opacity="0.15"/>
  <circle cx="540" cy="100" r="5" fill="#a78bfa" opacity="0.8"/>
  <circle cx="240" cy="160" r="5" fill="#a78bfa" opacity="0.7"/>
</svg>