<svg xmlns="http://www.w3.org/2000/svg" width="600" height="400" viewBox="0 0 600 400">
  <defs>
    <linearGradient id="bg" x1="0%" y1="0%" x2="100%" y2="100%">
      <stop offset="0%" stop-color="#3b1f3e"/>
      <stop offset="100%" stop-color="#4a1942"/>
    </linearGradient>
  </defs>
  <rect width="600" height="400" fill="url(#bg)"/>
  <rect x="180" y="50" width="200" height="280" rx="8" fill="#ffffff" opacity="0.1"/>
  <rect x="180" y="50" width="200" height="280" rx="8" fill="none" stroke="#fb7185" stroke-width="1.5" opacity="0.3"/>
  <rect x="204" y="90" width="80" height="10" rx="5" fill="#fb7185" opacity="0.6"/>
  <rect x="204" y="114" width="152" height="5" rx="2.5" fill="#ffffff" opacity="0.18"/>
  <rect x="204" y="128" width="130" height="5" rx="2.5" fill="#ffffff" opacity="0.12"/>
  <rect x="204" y="142" width="140" height="5" rx="2.5" fill="#ffffff" opacity="0.12"/>
  <rect x="204" y="168" width="70" height="8" rx="4" fill="#fbbf24" opacity="0.45"/>
  <rect x="204" y="188" width="152" height="5" rx="2.5" fill="#ffffff" opacity="0.12"/>
  <rect x="204" y="202" width="120" height="5" rx="2.5" fill="#ffffff" opacity="0.1"/>
  <rect x="204" y="216" width="145" height="5" rx="2.5" fill="#ffffff" opacity="0.1"/>
  <rect x="204" y="242" width="70" height="8" rx="4" fill="#fbbf24" opacity="0.45"/>
  <rect x="204" y="262" width="152" height="5" rx="2.5" fill="#ffffff" opacity="0.1"/>
  <rect x="204" y="276" width="110" height="5" rx="2.5" fill="#ffffff" opacity="0.08"/>
  <line x1="420" y1="80" x2="440" y2="100" stroke="#fb7185" stroke-width="3" stroke-linecap="round" opacity="0.5"/>
  <line x1="440" y1="80" x2="420" y2="100" stroke="#fb7185" stroke-width="3" stroke-linecap="round" opacity="0.5"/>
  <circle cx="430" cy="150" r="30" fill="none" stroke="#fb7185" stroke-width="2" opacity="0.2" stroke-dasharray="6 4"/>
  <text x="430" y="158" text-anchor="middle" font-size="28" fill="#fb7185" opacity="0.6" font-family="system-ui">?!</text>
</svg>