<svg xmlns="http://www.w3.org/2000/svg" width="600" height="400" viewBox="0 0 600 400">
  <defs>
    <linearGradient id="bg" x1="0%" y1="0%" x2="100%" y2="100%">
      <stop offset="0%" stop-color="#1e1b4b"/>
      <stop offset="100%" stop-color="#312e81"/>
    </linearGradient>
  </defs>
  <rect width="600" height="400" fill="url(#bg)"/>
  <rect x="50" y="70" width="240" height="140" rx="10" fill="#ffffff" opacity="0.07"/>
  <rect x="72" y="92" width="70" height="26" rx="6" fill="#818cf8" opacity="0.4"/>
  <rect x="72" y="130" width="110" height="5" rx="2.5" fill="#ffffff" opacity="0.15"/>
  <rect x="72" y="144" width="80" height="5" rx="2.5" fill="#ffffff" opacity="0.1"/>
  <rect x="72" y="170" width="56" height="22" rx="11" fill="#34d399" opacity="0.35"/>
  <rect x="310" y="70" width="240" height="140" rx="10" fill="#ffffff" opacity="0.07"/>
  <rect x="332" y="92" width="70" height="26" rx="6" fill="#22d3ee" opacity="0.4"/>
  <rect x="332" y="130" width="110" height="5" rx="2.5" fill="#ffffff" opacity="0.15"/>
  <rect x="332" y="144" width="80" height="5" rx="2.5" fill="#ffffff" opacity="0.1"/>
  <rect x="332" y="170" width="56" height="22" rx="11" fill="#34d399" opacity="0.35"/>
  <rect x="50" y="230" width="500" height="110" rx="10" fill="#ffffff" opacity="0.05"/>
  <rect x="72" y="252" width="130" height="8" rx="4" fill="#ffffff" opacity="0.15"/>
  <rect x="72" y="274" width="420" height="6" rx="3" fill="#818cf8" opacity="0.2"/>
  <rect x="72" y="290" width="320" height="6" rx="3" fill="#22d3ee" opacity="0.15"/>
  <rect x="72" y="306" width="370" height="6" rx="3" fill="#34d399" opacity="0.12"/>
</svg>