<svg xmlns="http://www.w3.org/2000/svg" width="600" height="400" viewBox="0 0 600 400">
  <defs>
    <linearGradient id="bg" x1="0%" y1="0%" x2="100%" y2="100%">
      <stop offset="0%" stop-color="#1a1f4e"/>
      <stop offset="100%" stop-color="#2d1b69"/>
    </linearGradient>
    <radialGradient id="glow" cx="50%" cy="50%" r="35%">
      <stop offset="0%" stop-color="#818cf8" stop-opacity="0.25"/>
      <stop offset="100%" stop-color="#818cf8" stop-opacity="0"/>
    </radialGradient>
  </defs>
  <rect width="600" height="400" fill="url(#bg)"/>
  <circle cx="300" cy="200" r="130" fill="url(#glow)"/>
  <circle cx="300" cy="200" r="100" fill="none" stroke="#818cf8" stroke-width="1.5" opacity="0.4"/>
  <circle cx="300" cy="200" r="65" fill="none" stroke="#a78bfa" stroke-width="1" opacity="0.35"/>
  <circle cx="300" cy="200" r="135" fill="none" stroke="#818cf8" stroke-width="0.8" opacity="0.2"/>
  <circle cx="220" cy="150" r="7" fill="#c4b5fd" opacity="0.9"/>
  <circle cx="390" cy="170" r="6" fill="#93c5fd" opacity="0.8"/>
  <circle cx="340" cy="110" r="5" fill="#c4b5fd" opacity="0.7"/>
  <circle cx="250" cy="270" r="6" fill="#818cf8" opacity="0.8"/>
  <circle cx="370" cy="260" r="5" fill="#93c5fd" opacity="0.6"/>
  <circle cx="300" cy="310" r="4" fill="#a78bfa" opacity="0.7"/>
  <line x1="220" y1="150" x2="340" y2="110" stroke="#c4b5fd" stroke-width="1" opacity="0.35"/>
  <line x1="340" y1="110" x2="390" y2="170" stroke="#93c5fd" stroke-width="1" opacity="0.35"/>
  <line x1="390" y1="170" x2="370" y2="260" stroke="#818cf8" stroke-width="1" opacity="0.3"/>
  <line x1="250" y1="270" x2="220" y2="150" stroke="#a78bfa" stroke-width="1" opacity="0.3"/>
  <line x1="250" y1="270" x2="370" y2="260" stroke="#818cf8" stroke-width="0.8" opacity="0.25"/>
  <line x1="300" y1="310" x2="250" y2="270" stroke="#a78bfa" stroke-width="0.8" opacity="0.25"/>
</svg>